<?xml version="1.0" encoding="UTF-8" standalone="no"?>
<svg
   xmlns:dc="http://purl.org/dc/elements/1.1/"
   xmlns:cc="http://creativecommons.org/ns#"
   xmlns:rdf="http://www.w3.org/1999/02/22-rdf-syntax-ns#"
   xmlns:svg="http://www.w3.org/2000/svg"
   xmlns="http://www.w3.org/2000/svg"
   xmlns:sodipodi="http://sodipodi.sourceforge.net/DTD/sodipodi-0.dtd"
   xmlns:inkscape="http://www.inkscape.org/namespaces/inkscape"
   inkscape:version="1.0 (4035a4f, 2020-05-01)"
   sodipodi:docname="heroimage.svg"
   xml:space="preserve"
   style="enable-background:new 0 0 554 490;"
   viewBox="0 0 554 490"
   y="0px"
   x="0px"
   id="Layer_1"
   version="1.1"><metadata
   id="metadata956"><rdf:RDF><cc:Work
       rdf:about=""><dc:format>image/svg+xml</dc:format><dc:type
         rdf:resource="http://purl.org/dc/dcmitype/StillImage" /><dc:title /></cc:Work></rdf:RDF></metadata><defs
   id="defs954"><inkscape:path-effect
   lpeversion="1"
   is_visible="true"
   id="path-effect1208"
   effect="spiro" />
	
</defs><sodipodi:namedview
   inkscape:current-layer="Layer_1"
   inkscape:window-maximized="0"
   inkscape:window-y="23"
   inkscape:window-x="0"
   inkscape:cy="305.04761"
   inkscape:cx="129.48671"
   inkscape:zoom="0.84347585"
   showgrid="false"
   id="namedview952"
   inkscape:window-height="788"
   inkscape:window-width="1401"
   inkscape:pageshadow="2"
   inkscape:pageopacity="0"
   guidetolerance="10"
   gridtolerance="10"
   objecttolerance="10"
   borderopacity="1"
   bordercolor="#666666"
   pagecolor="#ffffff"
   inkscape:document-rotation="0" />
<style
   id="style833"
   type="text/css">
	.st0{fill:#F5F7FF;}
	.st1{fill:none;stroke:#1A1A1A;stroke-width:3;}
	.st2{font-family:'AvenirNext-Bold';}
	.st3{font-size:9px;}
	.st4{fill:#F4F7FF;}
	.st5{fill:#D3D5DC;}
	.st6{fill:none;stroke:#11171B;stroke-width:3;}
	.st7{fill:#11171B;}
	.st8{fill:#D3D5DD;}
	.st9{fill:none;stroke:#11171B;stroke-width:3;stroke-linecap:square;}
	.st10{fill:#AFB2BC;}
	.st11{fill:#FFFFFF;}
	.st12{display:none;}
	.st13{display:inline;fill:#FFFFFF;}
	.st14{fill:#FFD200;}
	.st15{fill:#F4F7FF;stroke:#11171B;stroke-width:3;}
	.st16{fill:#FFD200;stroke:#11171B;stroke-width:3;}
	.st17{fill:#1A1A1A;}
</style>










































<g
   id="Rectangle-2">
	<g
   id="g836">
		<path
   d="m 145,202 c 0,-8.3 6.7,-15 15,-15 h 326 c 8.3,0 15,6.7 15,15 V 397 H 145 Z"
   class="st0"
   id="path-1" />
	</g>
	<path
   id="path838"
   d="m 146.5,395.5 h 353 V 202 c 0,-7.5 -6,-13.5 -13.5,-13.5 H 160 c -7.5,0 -13.5,6 -13.5,13.5 z"
   class="st1" />
</g><g
   aria-label="F5F7FF"
   transform="translate(389.0981,312.5891)"
   id="text841"
   style="font-size:9px;font-family:AvenirNext-Bold"
   class="st2 st3"><path
     d="M 5.0581055,-5.7700195 H 1.7490234 v 1.8457031 h 2.8432618 v 0.7734375 H 1.7490234 V 0 H 0.87890625 V -6.543457 H 5.0581055 Z"
     style="font-size:9px;font-family:AvenirNext-Bold"
     id="path1053" /><path
     d="m 10.252441,-2.0786133 q 0,0.4570313 -0.166992,0.8745117 Q 9.918457,-0.78662109 9.628418,-0.50097656 9.3120117,-0.19335937 8.8725586,-0.02636719 8.4375,0.13623047 7.8618164,0.13623047 q -0.5361328,0 -1.0327148,-0.11425781 Q 6.3325195,-0.08789062 5.9897461,-0.24609375 V -1.1733398 h 0.061523 q 0.3603516,0.22851558 0.84375,0.39111324 0.4833985,0.15820312 0.9492188,0.15820312 0.3120117,0 0.6020508,-0.0878906 0.2944336,-0.0878906 0.5229492,-0.30761716 0.1933594,-0.1889649 0.290039,-0.4526368 0.1010743,-0.2636718 0.1010743,-0.6108398 0,-0.3383789 -0.1186524,-0.5712891 Q 9.1274414,-2.887207 8.9208984,-3.027832 8.6923828,-3.1948242 8.362793,-3.2607422 q -0.3251953,-0.070312 -0.7294922,-0.070312 -0.3867188,0 -0.7470703,0.052734 -0.3559571,0.052734 -0.6152344,0.1054687 V -6.543457 h 3.9374999 v 0.7690429 H 7.1191406 v 1.7402344 q 0.1889649,-0.017578 0.3867188,-0.026367 0.1977539,-0.00879 0.3427734,-0.00879 0.5317383,0 0.9316406,0.092285 0.3999024,0.087891 0.7338868,0.3164063 0.3515625,0.2416992 0.5449218,0.6240234 0.193359,0.3823242 0.193359,0.9580087 z"
     style="font-size:9px;font-family:AvenirNext-Bold"
     id="path1055" /><path
     d="m 15.956543,-5.7700195 h -3.309082 v 1.8457031 h 2.843262 v 0.7734375 H 12.647461 V 0 h -0.870117 v -6.543457 h 4.179199 z"
     style="font-size:9px;font-family:AvenirNext-Bold"
     id="path1057" /><path
     d="M 21.221191,-5.5634766 18.259277,0 h -0.940429 l 3.150879,-5.7744141 H 16.743164 V -6.543457 h 4.478027 z"
     style="font-size:9px;font-family:AvenirNext-Bold"
     id="path1059" /><path
     d="m 26.85498,-5.7700195 h -3.309082 v 1.8457031 h 2.843262 v 0.7734375 H 23.545898 V 0 h -0.870117 v -6.543457 h 4.179199 z"
     style="font-size:9px;font-family:AvenirNext-Bold"
     id="path1061" /><path
     d="m 32.022949,-5.7700195 h -3.309082 v 1.8457031 h 2.843262 v 0.7734375 H 28.713867 V 0 H 27.84375 v -6.543457 h 4.179199 z"
     style="font-size:9px;font-family:AvenirNext-Bold"
     id="path1063" /></g><g
   id="Rectangle-2_1_">
	<g
   id="g844">
		<path
   d="m 145,394 h 356 v 32 c 0,8.3 -6.7,15 -15,15 H 160 c -8.3,0 -15,-6.7 -15,-15 z"
   class="st4"
   id="path-2" />
	</g>
	<path
   id="path846"
   d="M 146.5,395.5 V 426 c 0,7.5 6,13.5 13.5,13.5 h 326 c 7.5,0 13.5,-6 13.5,-13.5 v -30.5 z"
   class="st1" />
</g><g
   id="Combined-Shape">
	<g
   id="g850">
		<path
   d="m 349.7,438 h 3.8 l 6.5,43 H 343.2 286 l 6.5,-43 z"
   class="st5"
   id="path-3" />
	</g>
	<path
   id="path852"
   d="m 293.8,439.5 -6,40 h 70.5 l -6,-40 z"
   class="st6" />
</g><g
   transform="rotate(-16,34.217039,119.20984)"
   id="Combined-Shape_1_">
	<g
   id="g856">
		<path
   d="m 56.7,131.7 c -6.5,4.1 -11.3,11.2 -13.2,19.7 H 25.2 C 23.4,142.8 18.4,135.6 11.8,131.5 L 29.6,87 h 7.9 1.2 z"
   class="st0"
   id="path-4" />
	</g>
	<path
   id="path858"
   d="m 57.5,132.9 c -6.2,3.9 -10.8,10.8 -12.5,18.8 l -0.3,1.2 H 24 l -0.3,-1.2 C 22,143.6 17.3,136.7 11,132.8 L 9.9,132.1 28.6,85.4 h 11.1 l 18.8,46.8 z"
   class="st6" />
</g><path
   id="Rectangle-11"
   style="fill:#11171b;stroke-width:1.00003"
   d="m 23.617561,88.72893 2.98003,-0.85436 11.27204,39.31717 -2.98003,0.85436 z"
   class="st7" /><path
   id="Oval-5"
   style="fill:none;stroke:#11171b;stroke-width:3.00008"
   d="m 41.443044,129.94488 a 4.1001087,4.2001112 74.002662 0 1 -2.907499,5.09885 4.1001087,4.2001112 74.002662 0 1 -5.16742,-2.78381 4.1001087,4.2001112 74.002662 0 1 2.9075,-5.09885 4.1001087,4.2001112 74.002662 0 1 5.167419,2.78381"
   class="st6" /><g
   transform="rotate(-16,44.437013,155.64121)"
   id="Rectangle-12">
	<g
   id="g864">
		<path
   d="m 27.4,155 c 0,-2.8 2.2,-5 5,-5 h 24.1 c 2.8,0 5,2.2 5,5 v 6.2 H 27.4 Z"
   class="st8"
   id="path-5" />
	</g>
	<path
   id="path866"
   d="M 28.9,159.8 H 60 v -4.7 c 0,-1.9 -1.6,-3.5 -3.5,-3.5 H 32.4 c -1.9,0 -3.5,1.6 -3.5,3.5 z"
   class="st6" />
</g><path
   id="path1403"
   d="M 47.244141 158.48047 L 44.28125 158.95703 L 44.519531 160.4375 C 44.519531 160.4375 46.982281 175.87267 53.998047 191.21094 C 54.43174 192.1591 54.93899 193.09631 55.408203 194.04102 C 52.937996 198.92664 50.655345 204.4517 48.667969 210.85547 L 48.666016 210.85742 C 41.569999 233.8181 40.529274 263.62136 53.958984 291.66016 C 67.388694 319.69896 95.304379 345.84011 145.65625 361.43359 L 147.08984 361.87695 L 147.97656 359.01172 L 146.54297 358.56641 C 96.79484 343.15989 69.711306 317.60143 56.666016 290.36523 C 43.621069 263.12975 44.629711 234.08322 51.533203 211.74414 L 51.533203 211.74219 C 53.208724 206.34356 55.071461 201.55509 57.078125 197.31836 C 60.113714 202.83852 63.798819 208.09182 68.306641 212.30078 C 74.459183 218.04542 82.200172 221.83869 91.554688 221.49805 C 109.93806 220.82862 119.25294 210.35594 121.1543 198.9082 C 123.05565 187.46046 117.95938 175.03339 108.17969 170.0625 C 98.763462 165.27635 87.203686 164.33887 76.355469 170.27148 C 69.388944 174.0813 62.77809 180.71161 57.123047 190.75977 C 56.997763 190.49237 56.849014 190.2306 56.726562 189.96289 C 49.917329 175.07616 47.480469 159.96289 47.480469 159.96289 L 47.244141 158.48047 z M 92.783203 169.125 C 97.710161 169.21197 102.47843 170.5294 106.82031 172.73633 C 115.14062 176.96543 119.89396 188.18876 118.19531 198.41602 C 116.49667 208.64328 108.76194 217.87138 91.445312 218.50195 C 82.949828 218.81131 76.079098 215.45341 70.353516 210.10742 C 65.690314 205.75338 61.882167 200.05405 58.775391 194.07227 C 64.421557 183.39684 71.022344 176.60805 77.794922 172.9043 C 82.770813 170.18311 87.856245 169.03803 92.783203 169.125 z "
   style="color:#000000;font-style:normal;font-variant:normal;font-weight:normal;font-stretch:normal;font-size:medium;line-height:normal;font-family:sans-serif;font-variant-ligatures:normal;font-variant-position:normal;font-variant-caps:normal;font-variant-numeric:normal;font-variant-alternates:normal;font-variant-east-asian:normal;font-feature-settings:normal;font-variation-settings:normal;text-indent:0;text-align:start;text-decoration:none;text-decoration-line:none;text-decoration-style:solid;text-decoration-color:#000000;letter-spacing:normal;word-spacing:normal;text-transform:none;writing-mode:lr-tb;direction:ltr;text-orientation:mixed;dominant-baseline:auto;baseline-shift:baseline;text-anchor:start;white-space:normal;shape-padding:0;shape-margin:0;inline-size:0;clip-rule:nonzero;display:inline;overflow:visible;visibility:visible;isolation:auto;mix-blend-mode:normal;color-interpolation:sRGB;color-interpolation-filters:linearRGB;solid-color:#000000;solid-opacity:1;vector-effect:none;fill:#ececec;fill-opacity:1;fill-rule:nonzero;stroke:none;stroke-width:3;stroke-linecap:square;stroke-linejoin:miter;stroke-miterlimit:4;stroke-dasharray:none;stroke-dashoffset:0;stroke-opacity:1;color-rendering:auto;image-rendering:auto;shape-rendering:auto;text-rendering:auto;enable-background:accumulate;stop-color:#000000;stop-opacity:1;opacity:1" /><path
   d="m 321.5,409.2 c -0.1,0.5 -0.1,1 -0.1,1.5 0,4.6 3.7,8.3 8.3,8.3 0.5,0 1,0 1.5,-0.1 -0.7,3.8 -4.1,6.7 -8.2,6.7 -4.6,0 -8.3,-3.7 -8.3,-8.3 0,-4 2.9,-7.4 6.8,-8.1 z"
   class="st7"
   id="Combined-Shape_2_" /><g
   id="Rectangle-8">
	<g
   id="g872">
		<path
   d="m 275,483 c 0,-2.8 2.2,-5 5,-5 h 85 c 2.8,0 5,2.2 5,5 v 6 h -95 z"
   class="st10"
   id="path-6" />
	</g>
	<path
   id="path874"
   d="m 276.5,487.5 h 92 V 483 c 0,-1.9 -1.6,-3.5 -3.5,-3.5 h -85 c -1.9,0 -3.5,1.6 -3.5,3.5 z"
   class="st6" />
</g><g
   id="Rectangle-7">
	<g
   id="g878">
		<path
   d="m 169,216 c 0,-2.8 2.2,-5 5,-5 h 298 c 2.8,0 5,2.2 5,5 V 397 H 169 Z"
   class="st11"
   id="path-7" />
	</g>
	<path
   id="path880"
   d="m 170.5,395.5 h 305 V 216 c 0,-1.9 -1.6,-3.5 -3.5,-3.5 H 174 c -1.9,0 -3.5,1.6 -3.5,3.5 z"
   class="st6" />
</g><g
   id="Rectangle-7_1_">
	<g
   id="g884"
   class="st12">
		<path
   id="path-8"
   style="display:inline;fill:#ffffff"
   d="m 169,235.5 h 308 v 3 H 169 Z"
   class="st13" />
	</g>
	<g
   id="g888">
		<path
   id="polygon886"
   style="fill:#11171b"
   d="m 475.5,236 h -305 v 3 h 305 z"
   class="st7" />
	</g>
</g><g
   id="Oval-3">
	<g
   id="g892">
		<path
   id="path-9"
   style="fill:#ffd200"
   d="m 194.39999,225 a 6,6 0 0 1 -6,6 6,6 0 0 1 -6,-6 6,6 0 0 1 6,-6 6,6 0 0 1 6,6"
   class="st14" />
	</g>
	<path
   id="circle894"
   style="fill:none;stroke:#11171b;stroke-width:3"
   d="m 192.89999,225 a 4.5,4.5 0 0 1 -4.5,4.5 4.5,4.5 0 0 1 -4.5,-4.5 4.5,4.5 0 0 1 4.5,-4.5 4.5,4.5 0 0 1 4.5,4.5"
   class="st6" />
</g><g
   id="Oval-3_1_">
	<g
   id="g898">
		<path
   id="path-10"
   style="fill:#ffd200"
   d="m 212,225 a 6,6 0 0 1 -6,6 6,6 0 0 1 -6,-6 6,6 0 0 1 6,-6 6,6 0 0 1 6,6"
   class="st14" />
	</g>
	<path
   id="circle900"
   style="fill:none;stroke:#11171b;stroke-width:3"
   d="m 210.5,225 a 4.5,4.5 0 0 1 -4.5,4.5 4.5,4.5 0 0 1 -4.5,-4.5 4.5,4.5 0 0 1 4.5,-4.5 4.5,4.5 0 0 1 4.5,4.5"
   class="st6" />
</g><g
   id="Oval-3_2_">
	<g
   id="g904">
		<path
   id="path-11"
   style="fill:#ffd200"
   d="m 229.60001,225 a 6,6 0 0 1 -6,6 6,6 0 0 1 -6,-6 6,6 0 0 1 6,-6 6,6 0 0 1 6,6"
   class="st14" />
	</g>
	<path
   id="circle906"
   style="fill:none;stroke:#11171b;stroke-width:3"
   d="m 228.10001,225 a 4.5,4.5 0 0 1 -4.5,4.5 4.5,4.5 0 0 1 -4.5,-4.5 4.5,4.5 0 0 1 4.5,-4.5 4.5,4.5 0 0 1 4.5,4.5"
   class="st6" />
</g><g
   id="Mask">
	<path
   id="path909"
   d="m 262,251.5 h 122 c 2.8,0 5,2.2 5,5 v 121 c 0,2.8 -2.2,5 -5,5 H 262 c -2.8,0 -5,-2.2 -5,-5 v -121 c 0,-2.8 2.2,-5 5,-5 z"
   class="st15" />
</g><path
   id="Rectangle-6"
   style="fill:#11171b;stroke-width:0.99999"
   d="m 255.97803,323.1212 2.1213,-2.1213 60.1035,60.1035 -2.1213,2.1213 z"
   class="st7" /><path
   id="Rectangle-6_1_"
   style="fill:#11171b;stroke-width:0.99999"
   d="m 297.08731,359.92976 50.2041,-50.2041 2.1213,2.1213 -50.2041,50.2041 z"
   class="st7" /><g
   id="Oval-7">
	<g
   id="g915">
		<path
   id="path-14"
   style="fill:#ffd200"
   d="m 312.70001,307.60001 a 14,14 0 0 1 -14,14 14,14 0 0 1 -14,-14 14,14 0 0 1 14,-14 14,14 0 0 1 14,14"
   class="st14" />
	</g>
	<path
   id="circle917"
   style="fill:none;stroke:#11171b;stroke-width:3"
   d="m 311.20001,307.60001 a 12.5,12.5 0 0 1 -12.5,12.5 12.5,12.5 0 0 1 -12.5,-12.5 12.5,12.5 0 0 1 12.5,-12.5 12.5,12.5 0 0 1 12.5,12.5"
   class="st6" />
</g><path
   id="Rectangle-6_2_"
   style="fill:#11171b"
   d="m 348.1,308.9 41.9,42.1 -2,2 -41.9,-42.1 z"
   class="st7" /><path
   class="st16"
   d="m 408,251.5 h 122 c 2.8,0 5,2.2 5,5 v 121 c 0,2.8 -2.2,5 -5,5 H 408 c -2.8,0 -5,-2.2 -5,-5 v -121 c 0,-2.8 2.2,-5 5,-5 z"
   id="path921" /><path
   id="Rectangle-6_3_"
   style="fill:#11171b"
   d="m 406,251 130,129 -2.2,2.2 -130,-129 z"
   class="st7" /><path
   id="Rectangle-6_4_"
   style="fill:#11171b"
   d="m 533.8,250.8 -129,129 2.2,2.2 129,-129 z"
   class="st7" /><g
   id="Mask_2_">
	<path
   id="path926"
   d="m 116,251.5 h 122 c 2.8,0 5,2.2 5,5 v 121 c 0,2.8 -2.2,5 -5,5 H 116 c -2.8,0 -5,-2.2 -5,-5 v -121 c 0,-2.8 2.2,-5 5,-5 z"
   class="st16" />
</g><path
   id="Rectangle-6_5_"
   style="fill:#11171b"
   d="M 113.9,251.5 243,380 240.8,382.2 111.7,253.7 Z"
   class="st7" /><path
   id="Rectangle-6_6_"
   style="fill:#11171b"
   d="M 240.8,251.5 111.7,379.8 113.9,382 243,253.7 Z"
   class="st7" /><path
   d="m 265.5,486 h 113 c 0.8,0 1.5,0.7 1.5,1.5 v 0 c 0,0.8 -0.7,1.5 -1.5,1.5 h -113 c -0.8,0 -1.5,-0.7 -1.5,-1.5 v 0 c 0,-0.8 0.7,-1.5 1.5,-1.5 z"
   class="st17"
   id="Rectangle-5" /><path
   d="m 404.5,486 h 148 c 0.8,0 1.5,0.7 1.5,1.5 v 0 c 0,0.8 -0.7,1.5 -1.5,1.5 h -148 c -0.8,0 -1.5,-0.7 -1.5,-1.5 v 0 c 0,-0.8 0.7,-1.5 1.5,-1.5 z"
   class="st17"
   id="Rectangle-5_1_" /><path
   d="m 95.5,486 h 148 c 0.8,0 1.5,0.7 1.5,1.5 v 0 c 0,0.8 -0.7,1.5 -1.5,1.5 h -148 c -0.8,0 -1.5,-0.7 -1.5,-1.5 v 0 c 0,-0.8 0.7,-1.5 1.5,-1.5 z"
   class="st17"
   id="Rectangle-5_2_" /><path
   d="m 1.5,486 h 73.9 c 0.8,0 1.5,0.7 1.5,1.5 v 0 c 0,0.8 -0.7,1.5 -1.5,1.5 H 1.5 C 0.7,489 0,488.3 0,487.5 v 0 C 0,486.7 0.7,486 1.5,486 Z"
   class="st17"
   id="Rectangle-5_3_" /><g
   transform="translate(0.51176504)"
   id="Oval-6">
	<g
   id="g936">
		<path
   id="path-19"
   style="fill:#ffd200"
   d="M 361,118.5 A 38.5,38.5 0 0 1 322.5,157 38.5,38.5 0 0 1 284,118.5 38.5,38.5 0 0 1 322.5,80 38.5,38.5 0 0 1 361,118.5"
   class="st14" />
	</g>
	<path
   id="circle938"
   style="fill:none;stroke:#11171b;stroke-width:3"
   d="m 359.5,118.5 a 37,37 0 0 1 -37,37 37,37 0 0 1 -37,-37 37,37 0 0 1 37,-37 37,37 0 0 1 37,37"
   class="st6" />
</g><path
   style="fill:#f2f2f2"
   d="m 321.4,22.5 v 0 c 0.9,0 1.5,0.7 1.5,1.6 v 22.5 c 0,0.9 -0.7,1.6 -1.6,1.6 v 0 c -0.9,0 -1.6,-0.7 -1.6,-1.6 V 24 c 0.2,-0.8 0.9,-1.5 1.7,-1.5 z"
   class="st7"
   id="Rectangle-13" /><path
   style="fill:#f2f2f2"
   d="m 380,36.2 v 0 c 0.8,0.4 1.1,1.3 0.7,2.1 l -10.2,20 c -0.4,0.8 -1.3,1.1 -2.1,0.7 v 0 c -0.8,-0.4 -1.1,-1.3 -0.7,-2.1 l 10.2,-20 c 0.4,-0.8 1.3,-1.1 2.1,-0.7 z"
   class="st7"
   id="Rectangle-13_1_" /><path
   style="fill:#f2f2f2"
   d="m 429.7,79 v 0 c 0.5,0.7 0.3,1.7 -0.4,2.2 L 410.9,94 c -0.7,0.5 -1.7,0.3 -2.2,-0.4 v 0 c -0.5,-0.7 -0.3,-1.7 0.4,-2.2 l 18.4,-12.9 c 0.7,-0.4 1.7,-0.2 2.2,0.5 z"
   class="st7"
   id="Rectangle-13_2_" /><path
   style="fill:#f2f2f2"
   d="m 214.5,79 v 0 c -0.5,0.7 -0.3,1.7 0.4,2.2 L 233.2,94 c 0.7,0.5 1.7,0.3 2.2,-0.4 v 0 c 0.5,-0.7 0.3,-1.7 -0.4,-2.2 L 216.6,78.5 c -0.7,-0.4 -1.6,-0.2 -2.1,0.5 z"
   class="st7"
   id="Rectangle-13_3_" /><path
   style="fill:#f2f2f2"
   d="m 262.9,37.2 v 0 c -0.8,0.4 -1.1,1.3 -0.7,2.1 l 10.2,20 c 0.4,0.8 1.3,1.1 2.1,0.7 v 0 c 0.8,-0.4 1.1,-1.3 0.7,-2.1 L 265,37.9 c -0.4,-0.8 -1.3,-1.1 -2.1,-0.7 z"
   class="st7"
   id="Rectangle-13_4_" /><path
   style="fill:#f2f2f2"
   d="m 358,0.9 v 0 c 0.8,0.2 1.3,1.1 1.1,1.9 l -12.4,46.4 c -0.2,0.8 -1.1,1.3 -1.9,1.1 v 0 c -0.8,-0.2 -1.3,-1.1 -1.1,-1.9 L 356.1,2 c 0.3,-0.9 1.1,-1.4 1.9,-1.1 z"
   class="st7"
   id="Rectangle-13_5_" /><path
   style="fill:#f2f2f2"
   d="m 424,34.9 v 0 c 0.6,0.6 0.7,1.5 0.2,2.2 l -31.5,36.2 c -0.6,0.6 -1.5,0.7 -2.2,0.2 v 0 c -0.6,-0.6 -0.7,-1.5 -0.2,-2.2 l 31.5,-36.2 c 0.6,-0.7 1.6,-0.8 2.2,-0.2 z"
   class="st7"
   id="Rectangle-13_6_" /><path
   style="fill:#f2f2f2"
   d="m 220,35.9 v 0 c -0.6,0.6 -0.7,1.5 -0.2,2.2 l 31.5,36.2 c 0.6,0.6 1.5,0.7 2.2,0.2 v 0 c 0.6,-0.6 0.7,-1.5 0.2,-2.2 L 222.2,36.1 c -0.6,-0.7 -1.6,-0.7 -2.2,-0.2 z"
   class="st7"
   id="Rectangle-13_7_" /><path
   style="fill:#f2f2f2"
   d="m 284.9,0.9 v 0 c -0.8,0.2 -1.3,1.1 -1.1,1.9 l 12.4,46.4 c 0.2,0.8 1.1,1.3 1.9,1.1 v 0 c 0.8,-0.2 1.3,-1.1 1.1,-1.9 L 286.8,2 c -0.3,-0.9 -1.1,-1.4 -1.9,-1.1 z"
   class="st7"
   id="Rectangle-13_8_" /><text
   id="text1308"
   y="112.43591"
   x="322.85751"
   style="font-style:normal;font-weight:normal;font-size:16px;line-height:1.25;font-family:sans-serif;fill:#000000;fill-opacity:1;stroke:none"
   xml:space="preserve"><tspan
     style="font-style:normal;font-variant:normal;font-weight:normal;font-stretch:normal;font-size:16px;font-family:'American Typewriter';-inkscape-font-specification:'American Typewriter';text-align:center;text-anchor:middle"
     y="112.43591"
     x="322.85751"
     id="tspan1306"
     sodipodi:role="line">WEB </tspan><tspan
     style="font-style:normal;font-variant:normal;font-weight:normal;font-stretch:normal;font-size:16px;font-family:'American Typewriter';-inkscape-font-specification:'American Typewriter';text-align:center;text-anchor:middle"
     id="tspan1310"
     y="132.53209"
     x="322.85751"
     sodipodi:role="line">Design</tspan></text></svg>
